<svg width="511" height="231" viewBox="0 0 511 231" fill="none" xmlns="http://www.w3.org/2000/svg">
<g clip-path="url(#clip0_2_28)">
<path d="M234.71 179.9L232.91 163.97C228.28 170.14 222.16 174.98 214.53 178.49C206.9 182 198.55 183.76 189.47 183.76C176.62 183.76 165.14 180.76 155.03 174.77C144.92 168.77 137 160.47 131.26 149.84C125.52 139.22 122.65 127.14 122.65 113.6C122.65 100.06 125.52 87.77 131.26 77.24C137 66.7 144.92 58.44 155.03 52.44C165.14 46.44 176.62 43.45 189.47 43.45C198.55 43.45 206.86 45.21 214.4 48.72C221.94 52.23 228.11 57.07 232.9 63.24L234.7 47.31H266.82V179.92H234.7L234.71 179.9ZM195.39 151.12C205.84 151.12 214.36 147.61 220.96 140.58C227.55 133.56 230.85 124.56 230.85 113.6C230.85 102.64 227.55 93.64 220.96 86.62C214.36 79.6 205.84 76.08 195.39 76.08C184.94 76.08 176.41 79.59 169.82 86.62C163.22 93.65 159.93 102.64 159.93 113.6C159.93 124.56 163.23 133.56 169.82 140.58C176.41 147.61 184.94 151.12 195.39 151.12Z" fill="#FF2882"/>
<path d="M282.25 179.9V0H318.23V179.9H282.25Z" fill="#FF2882"/>
<path d="M333.65 179.9V0H369.63V179.9H333.65Z" fill="#FF2882"/>
<path d="M384.02 205.59L403.55 183.75C414.17 193.34 426.42 198.14 440.3 198.14C450.92 198.14 459.45 195.18 465.87 189.27C472.29 183.36 475.51 175.18 475.51 164.73V158.31C471.74 163.45 466.47 167.52 459.7 170.52C452.93 173.52 445.61 175.02 437.73 175.02C420.94 175.02 407.66 169.8 397.9 159.34C388.13 148.89 383.25 134.5 383.25 116.17V47.29H419.23V112.31C419.23 132.7 428.23 142.89 446.21 142.89C454.43 142.89 461.24 139.93 466.64 134.02C472.04 128.11 474.73 120.7 474.73 111.79V47.29H510.71V158.83C510.71 181.45 504.54 198.96 492.21 211.38C479.87 223.8 462.82 230.01 441.07 230.01C429.93 230.01 419.44 227.99 409.59 223.97C399.74 219.94 391.21 213.82 384.02 205.59Z" fill="#FF2882"/>
<g clip-path="url(#clip1_2_28)">
<path d="M0 173.136C18.1007 180.27 37.4451 183.97 57.037 183.97C77.0036 183.97 96.7131 180.127 115.111 172.723V136.127C97.2828 145.739 77.3287 150.785 57.037 150.785C50.2424 150.785 43.4856 150.219 36.8338 149.106L115.111 93.2708V55.217C96.713 47.8131 77.0036 43.97 57.037 43.97C37.445 43.97 18.1007 47.6703 0 54.804V91.2606C17.5634 82.0076 37.1378 77.1552 57.037 77.1552C64.0965 77.1552 71.1151 77.7659 78.0176 78.9671L0 134.617V173.136Z" fill="#FF2882"/>
</g>
</g>
<defs>
<clipPath id="clip0_2_28">
<rect width="511" height="231" fill="white"/>
</clipPath>
<clipPath id="clip1_2_28">
<rect width="115.111" height="140" fill="white" transform="translate(0 43.97)"/>
</clipPath>
</defs>
</svg>
